<svg xmlns="http://www.w3.org/2000/svg" viewBox="0 0 845 459"><path fill="#F1DAC4" d="M556.8 108l-78.7-78.7H366.9L288.2 108v111.2l78.7 78.7h111.2l78.7-78.7V108zm-10.8 4.5v38.1l-27-27V85.5l27 27zm-88 136.8h-71l-50.2-50.2v-71L387 77.9h71l50.2 50.2v71L458 249.3zm50.2-34.9v35h-35l35-35zm-61 45.7l-24.7 24.7-24.7-24.7h49.4zm-110.4-45.7l35 34.9h-35v-34.9zM326 188.3l-24.7-24.7 24.7-24.7v49.4zm10.8-75.5v-35h35l-35 35zm61-45.7l24.7-24.7 24.7 24.7h-49.4zm110.4 45.7l-35-35h35v35zm10.8 26.1l24.7 24.7-24.7 24.7v-49.4zm-45.4-98.8l27 27h-38.1l-26.9-27h38zm-102.2 0h38.1l-26.9 27h-38.1l26.9-27zM299 112.5l27-27v38.1l-27 27v-38.1zm0 102.3v-38.1l27 27v38.1l-27-27zm72.4 72.3l-27-27h38.1l27 27h-38.1zm102.2 0h-38.1l27-27h38.1l-27 27zm45.4-45.4v-38.1l26.9-26.9v38.1L519 241.7z"/><path fill="#F1DAC4" d="M442.8 207.1h-40.5v-87h40.5v21.7H432v-10.9h-18.9v65.4H432v-32.7h10.8"/><path fill="#F1DAC4" d="M426 158.2h22.9V169H426zM108.1 379.6H95.4v-5.3c0-.4-.3-.7-.7-.7H52.6c-.4 0-.7.3-.7.7v42.2c0 .4.3.7.7.7h42.1c.4 0 .7-.3.7-.7v-13H79.8v-12.6H108v25.6c0 7.3-6 13.3-13.4 13.3h-42c-7.3 0-13.3-5.9-13.3-13.3v-42.2c0-7.3 5.9-13.3 13.3-13.3h42.1c7.3 0 13.4 5.9 13.4 13.3v5.3zm117.2 13.2c0 7.3-6 13.3-13.4 13.3h-3.7l17.1 20.3v3.2h-13.7L191.8 406h-22.5v23.6h-12.6V361H212c7.3 0 13.4 6 13.4 13.3l-.1 18.5zm-13.3.7c.4 0 .7-.3.7-.7v-18.5c0-.4-.3-.7-.7-.7h-42.1c-.4 0-.7.3-.7.7v18.5c0 .4.3.7.7.7H212zM329.2 361c7.3 0 13.4 5.9 13.4 13.3v55.4h-12.7v-23.1h-43.4v23.1h-12.6v-55.4c0-7.3 5.9-13.3 13.3-13.3h42zm.6 33v-19.8c0-.4-.3-.7-.7-.7H287c-.4 0-.7.3-.7.7V394h43.5zm117.8-33h12.7v68.7h-13.7l-42.4-50.4v50.4h-12.6V361h13.7l42.3 50.4V361zm126.8 0v12.6h-28v56.1h-12.7v-56.1h-28.1V361h68.8zm100.6 0c7.3 0 13.3 5.9 13.3 13.3v42.2c0 7.3-6 13.3-13.3 13.3h-42.2c-7.3 0-13.3-5.9-13.3-13.3v-42.2c0-7.3 5.9-13.3 13.3-13.3H675zm0 56.1c.3 0 .6-.3.6-.7v-42.2c0-.4-.3-.7-.6-.7h-42.2c-.4 0-.7.3-.7.7v42.2c0 .4.3.7.7.7H675zM792.9 361h12.7v68.7h-13.7l-42.4-50.4v50.4h-12.6V361h13.7l42.3 50.4V361z"/></svg>